<?xml version="1.0" standalone="no"?><!DOCTYPE svg PUBLIC "-//W3C//DTD SVG 1.1//EN" "http://www.w3.org/Graphics/SVG/1.1/DTD/svg11.dtd"><svg t="1684307186251" class="icon" viewBox="0 0 1024 1024" version="1.1" xmlns="http://www.w3.org/2000/svg" p-id="3147" xmlns:xlink="http://www.w3.org/1999/xlink" width="200" height="200"><path d="M950.857143 1024H73.142857a73.142857 73.142857 0 0 1-73.142857-73.142857V73.142857a73.142857 73.142857 0 0 1 73.142857-73.142857h877.714286a73.142857 73.142857 0 0 1 73.142857 73.142857v877.714286a73.142857 73.142857 0 0 1-73.142857 73.142857zM292.571429 658.285714H219.428571a76.434286 76.434286 0 0 1-73.142857-73.142857V512a62.829714 62.829714 0 0 1 73.142857-73.142857h73.142858V365.714286H219.428571a145.700571 145.700571 0 0 0-146.285714 146.285714v73.142857a142.409143 142.409143 0 0 0 146.285714 146.285714h73.142858V658.285714z m146.285714-292.571428H365.714286v365.714285h73.142857V658.285714a149.357714 149.357714 0 0 0 146.285714-146.285714 129.243429 129.243429 0 0 0-146.285714-146.285714z m512 0h-73.142857v219.428571c-8.777143 49.810286-16.384 75.117714-73.142857 73.142857a64.512 64.512 0 0 1-73.142858-73.142857V365.714286H658.285714v219.428571a131.657143 131.657143 0 0 0 146.285715 146.285714 134.509714 134.509714 0 0 0 146.285714-146.285714V365.714286zM438.857143 585.142857V438.857143a80.457143 80.457143 0 0 1 73.142857 73.142857 96.548571 96.548571 0 0 1-73.142857 73.142857z" fill="#333333" p-id="3148"></path></svg>