<?xml version="1.0" standalone="no"?><!DOCTYPE svg PUBLIC "-//W3C//DTD SVG 1.1//EN" "http://www.w3.org/Graphics/SVG/1.1/DTD/svg11.dtd"><svg t="1684308490570" class="icon" viewBox="0 0 1024 1024" version="1.1" xmlns="http://www.w3.org/2000/svg" p-id="8608" xmlns:xlink="http://www.w3.org/1999/xlink" width="48" height="48"><path d="M955.5 364.5v-50H847V177H709.5V71.5h-50V177H537V71.5h-50V177H364.5V71.5h-50V177H177v137.5H68.5v50H177V487H68.5v50H177v122.5H68.5v50H177V847h137.5v105.5h50V847H487v105.5h50V847h122.5v105.5h50V847H847V709.5h108.5v-50H847V537h108.5v-50H847V364.5h108.5zM797 797H227V227h570v570zM672 352H352v320h320V352z m-50 270H402V402h220v220z" fill="#ffffff" p-id="8609"></path></svg>